<svg width="18" height="18" viewBox="0 0 18 18" fill="none" xmlns="http://www.w3.org/2000/svg">
<path d="M8.99935 5.45817C8.48158 5.45817 8.06185 5.8779 8.06185 6.39567C8.06185 6.74085 7.78203 7.02067 7.43685 7.02067C7.09167 7.02067 6.81185 6.74085 6.81185 6.39567C6.81185 5.18755 7.79123 4.20817 8.99935 4.20817C10.2075 4.20817 11.1868 5.18755 11.1868 6.39567C11.1868 7.19845 10.7541 7.89948 10.1121 8.27931C9.94811 8.37631 9.81276 8.48223 9.72458 8.58614C9.63897 8.68703 9.62435 8.75284 9.62435 8.7915V9.83317C9.62435 10.1783 9.34453 10.4582 8.99935 10.4582C8.65417 10.4582 8.37435 10.1783 8.37435 9.83317V8.7915C8.37435 8.36993 8.55891 8.02787 8.77151 7.77735C8.98154 7.52986 9.24343 7.34084 9.47557 7.20349C9.75305 7.03933 9.93685 6.73863 9.93685 6.39567C9.93685 5.8779 9.51712 5.45817 8.99935 5.45817Z" fill="url(#paint0_linear_144746_5294)"/>
<path d="M8.99935 13.1665C9.45959 13.1665 9.83268 12.7934 9.83268 12.3332C9.83268 11.8729 9.45959 11.4998 8.99935 11.4998C8.53911 11.4998 8.16602 11.8729 8.16602 12.3332C8.16602 12.7934 8.53911 13.1665 8.99935 13.1665Z" fill="url(#paint1_linear_144746_5294)"/>
<path fill-rule="evenodd" clip-rule="evenodd" d="M8.95153 0.0415041H9.04716C10.9708 0.0414937 12.4784 0.0414856 13.6546 0.199626C14.8585 0.361493 15.8086 0.699277 16.5542 1.44495C17.2999 2.19063 17.6377 3.14065 17.7996 4.34459C17.9577 5.52083 17.9577 7.02836 17.9577 8.95203V9.04765C17.9577 10.9713 17.9577 12.4788 17.7996 13.6551C17.6377 14.859 17.2999 15.8091 16.5542 16.5547C15.8086 17.3004 14.8585 17.6382 13.6546 17.8C12.4784 17.9582 10.9708 17.9582 9.04716 17.9582H8.95154C7.02788 17.9582 5.52034 17.9582 4.3441 17.8C3.14016 17.6382 2.19014 17.3004 1.44446 16.5547C0.698788 15.8091 0.361005 14.859 0.199138 13.6551C0.0409973 12.4788 0.0410054 10.9713 0.0410158 9.04767V8.95202C0.0410054 7.02837 0.0409973 5.52083 0.199138 4.34459C0.361005 3.14065 0.698788 2.19063 1.44446 1.44495C2.19014 0.699277 3.14016 0.361493 4.3441 0.199626C5.52034 0.0414856 7.02788 0.0414937 8.95153 0.0415041ZM4.51066 1.43848C3.44533 1.58171 2.80306 1.85412 2.32835 2.32883C1.85363 2.80355 1.58122 3.44582 1.43799 4.51115C1.29234 5.59447 1.29102 7.01798 1.29102 8.99984C1.29102 10.9817 1.29234 12.4052 1.43799 13.4885C1.58122 14.5539 1.85363 15.1961 2.32835 15.6708C2.80306 16.1456 3.44533 16.418 4.51066 16.5612C5.59398 16.7068 7.01749 16.7082 8.99935 16.7082C10.9812 16.7082 12.4047 16.7068 13.488 16.5612C14.5534 16.418 15.1956 16.1456 15.6704 15.6708C16.1451 15.1961 16.4175 14.5539 16.5607 13.4885C16.7064 12.4052 16.7077 10.9817 16.7077 8.99984C16.7077 7.01798 16.7064 5.59447 16.5607 4.51115C16.4175 3.44582 16.1451 2.80355 15.6704 2.32883C15.1956 1.85412 14.5534 1.58171 13.488 1.43848C12.4047 1.29283 10.9812 1.2915 8.99935 1.2915C7.01749 1.2915 5.59398 1.29283 4.51066 1.43848Z" fill="url(#paint2_linear_144746_5294)"/>
<defs>
<linearGradient id="paint0_linear_144746_5294" x1="-2.59988" y1="0.041508" x2="18.8103" y2="1.24604" gradientUnits="userSpaceOnUse">
<stop stop-color="#FF7000"/>
<stop offset="0.9999" stop-color="#E2985E"/>
<stop offset="1" stop-color="#E2995F"/>
</linearGradient>
<linearGradient id="paint1_linear_144746_5294" x1="-2.59988" y1="0.041508" x2="18.8103" y2="1.24604" gradientUnits="userSpaceOnUse">
<stop stop-color="#FF7000"/>
<stop offset="0.9999" stop-color="#E2985E"/>
<stop offset="1" stop-color="#E2995F"/>
</linearGradient>
<linearGradient id="paint2_linear_144746_5294" x1="-2.59988" y1="0.041508" x2="18.8103" y2="1.24604" gradientUnits="userSpaceOnUse">
<stop stop-color="#FF7000"/>
<stop offset="0.9999" stop-color="#E2985E"/>
<stop offset="1" stop-color="#E2995F"/>
</linearGradient>
</defs>
</svg>
